<?xml version="1.0" encoding="UTF-8" standalone="no"?>
<svg
   version="1.1"
   width="4.7937in"
   height="2.5839in"
   viewBox="0 0 345.1465 186.0378"
   id="svg15"
   sodipodi:docname="Laskos &amp; Laskos Papelaria.svg"
   inkscape:version="1.4.2 (f4327f4, 2025-05-13)"
   xmlns:inkscape="http://www.inkscape.org/namespaces/inkscape"
   xmlns:sodipodi="http://sodipodi.sourceforge.net/DTD/sodipodi-0.dtd"
   xmlns:xlink="http://www.w3.org/1999/xlink"
   xmlns="http://www.w3.org/2000/svg"
   xmlns:svg="http://www.w3.org/2000/svg">
  <defs
     id="defs16" />
  <sodipodi:namedview
     id="namedview15"
     pagecolor="#ffffff"
     bordercolor="#000000"
     borderopacity="0.25"
     inkscape:showpageshadow="2"
     inkscape:pageopacity="0.0"
     inkscape:pagecheckerboard="0"
     inkscape:deskcolor="#d1d1d1"
     inkscape:document-units="in"
     inkscape:zoom="3.1162519"
     inkscape:cx="230.24454"
     inkscape:cy="124.98989"
     inkscape:window-width="1920"
     inkscape:window-height="991"
     inkscape:window-x="-9"
     inkscape:window-y="-9"
     inkscape:window-maximized="1"
     inkscape:current-layer="svg15" />
  <path
     d="M -6e-4,0.0016 H 345.147 V 186.0362 H -6e-4 Z"
     style="fill:#000200;fill-rule:evenodd"
     id="path1"
     sodipodi:nodetypes="ccccc" />
  <g
     id="Layer1000">
    <defs
       id="defs5">
      <linearGradient
         id="grad1">
        <stop
           offset="0.0000%"
           stop-color="#ffffff"
           stop-opacity="1.0000"
           id="stop1" />
        <stop
           offset="15.0000%"
           stop-color="#878783"
           stop-opacity="1.0000"
           id="stop2" />
        <stop
           offset="44.0000%"
           stop-color="#fbfbfb"
           stop-opacity="1.0000"
           id="stop3" />
        <stop
           offset="71.0000%"
           stop-color="#949491"
           stop-opacity="1.0000"
           id="stop4" />
        <stop
           offset="100.0000%"
           stop-color="#ffffff"
           stop-opacity="1.0000"
           id="stop5" />
      </linearGradient>
      <linearGradient
         xlink:href="#grad1"
         id="grad2"
         x1="0"
         y1="0"
         x2="0"
         y2="1"
         gradientTransform="rotate(357 .5 .5)"
         gradientUnits="objectBoundingBox" />
    </defs>
    <path
       d="  M105.4616,119.8591 L105.2866,119.8114 C105.0214,120.5328 104.6527,121.1111 104.1805,121.5461 C103.7084,121.9811 103.0745,122.1986 102.2788,122.1986 L100.0985,122.1986 C99.7271,122.1986 99.4831,122.1323 99.3664,121.9996 C99.2497,121.8670 99.1913,121.6203 99.1913,121.2596 L99.1913,112.8726 L99.1913,111.3607 C99.1913,111.3607 99.0747,111.3607 98.8412,111.3607 C98.6079,111.3607 98.3213,111.3634 97.9819,111.3687 C97.6423,111.3740 97.2869,111.3767 96.9155,111.3767 C96.5443,111.3767 96.2260,111.3767 95.9607,111.3767 L95.9607,111.6154 C96.1941,111.6154 96.4037,111.6287 96.5894,111.6552 C96.7750,111.6817 96.9342,111.7374 97.0668,111.8223 C97.1994,111.9072 97.3002,112.0319 97.3692,112.1963 C97.4381,112.3608 97.4726,112.5862 97.4726,112.8726 L97.4726,122.8351 L104.5386,122.8351 L105.4616,119.8591 Z Z M178.2069,120.6230 L178.0637,120.5911 C177.9894,120.9307 177.8144,121.2065 177.5386,121.4187 C177.2626,121.6309 176.9550,121.7371 176.6155,121.7371 C176.3608,121.7371 176.1195,121.6919 175.8913,121.6017 C175.6633,121.5116 175.4458,121.3922 175.2388,121.2436 C175.0320,121.0951 174.8410,120.9254 174.6659,120.7344 C174.4909,120.5435 174.3397,120.3471 174.2124,120.1456 C174.2972,120.0077 174.4352,119.7716 174.6261,119.4373 C174.8171,119.1032 175.0187,118.7477 175.2310,118.3711 C175.4431,117.9944 175.6447,117.6390 175.8357,117.3048 C176.0267,116.9707 176.1593,116.7292 176.2336,116.5808 C176.3608,116.3367 176.3715,116.1351 176.2654,115.9759 C176.1593,115.8169 176.0161,115.7186 175.8357,115.6815 C175.6553,115.6445 175.4803,115.6815 175.3105,115.7929 C175.1407,115.9043 175.0558,116.1086 175.0558,116.4056 C175.0558,117.0105 174.9392,117.5887 174.7057,118.1403 C174.4724,118.6920 174.1700,119.2013 173.7986,119.6681 C173.4273,119.0952 173.0693,118.5197 172.7244,117.9414 C172.3796,117.3632 172.0639,116.7558 171.7774,116.1192 C172.0639,115.9919 172.3530,115.8354 172.6448,115.6497 C172.9366,115.4641 173.1965,115.2518 173.4247,115.0131 C173.6527,114.7745 173.8410,114.5065 173.9896,114.2094 C174.1381,113.9124 174.2124,113.5889 174.2124,113.2387 C174.2124,112.9522 174.1593,112.6817 174.0532,112.4271 C173.9471,112.1724 173.8039,111.9549 173.6235,111.7746 C173.4432,111.5942 173.2257,111.4510 172.9710,111.3449 C172.7164,111.2388 172.4459,111.1857 172.1595,111.1857 C171.7563,111.1857 171.3955,111.2600 171.0773,111.4085 C170.7590,111.5571 170.4831,111.7586 170.2497,112.0133 C170.0163,112.2679 169.8386,112.5650 169.7166,112.9044 C169.5946,113.2440 169.5336,113.6047 169.5336,113.9866 C169.5336,114.3793 169.5946,114.7850 169.7166,115.2042 C169.8386,115.6232 169.9633,116.0184 170.0905,116.3898 C169.7192,116.6338 169.3479,116.8804 168.9765,117.1297 C168.6052,117.3791 168.2684,117.6576 167.9660,117.9653 C167.6635,118.2730 167.4169,118.6178 167.2260,118.9997 C167.0350,119.3817 166.9395,119.8220 166.9395,120.3206 C166.9395,120.7025 167.0111,121.0580 167.1544,121.3869 C167.2976,121.7158 167.4912,121.9969 167.7352,122.2304 C167.9793,122.4637 168.2657,122.6468 168.5946,122.7794 C168.9235,122.9120 169.2789,122.9783 169.6609,122.9783 C169.9791,122.9783 170.2974,122.9385 170.6158,122.8589 C170.9340,122.7794 171.2443,122.6680 171.5467,122.5248 C171.8491,122.3816 172.1329,122.2091 172.3981,122.0076 C172.6634,121.8060 172.9021,121.5885 173.1143,121.3551 C173.3053,121.5461 173.5042,121.7371 173.7111,121.9280 C173.9180,122.1190 174.1328,122.2913 174.3556,122.4452 C174.5785,122.5991 174.8171,122.7237 175.0718,122.8192 C175.3264,122.9147 175.6022,122.9625 175.8993,122.9625 C176.2282,122.9625 176.5253,122.8961 176.7905,122.7635 C177.0558,122.6309 177.2866,122.4585 177.4828,122.2462 C177.6791,122.0341 177.8382,121.7874 177.9603,121.5063 C178.0823,121.2251 178.1645,120.9307 178.2069,120.6230 Z Z M173.2735,113.2228 C173.2735,113.7851 173.1143,114.2732 172.7960,114.6869 C172.4777,115.1007 172.0639,115.4137 171.5547,115.6259 C171.4062,115.2545 171.2761,114.8832 171.1647,114.5119 C171.0533,114.1405 170.9977,113.7533 170.9977,113.3501 C170.9977,113.1591 171.0136,112.9655 171.0454,112.7692 C171.0773,112.5730 171.1382,112.3979 171.2285,112.2441 C171.3186,112.0902 171.4380,111.9656 171.5865,111.8700 C171.7351,111.7746 171.9260,111.7268 172.1595,111.7268 C172.3504,111.7268 172.5149,111.7746 172.6528,111.8700 C172.7907,111.9656 172.9047,112.0849 172.9950,112.2281 C173.0851,112.3713 173.1541,112.5332 173.2018,112.7135 C173.2496,112.8939 173.2735,113.0636 173.2735,113.2228 Z Z M172.7005,120.9254 C172.4353,121.2118 172.1117,121.4558 171.7298,121.6575 C171.3478,121.8590 170.9552,121.9598 170.5520,121.9598 C170.2444,121.9598 169.9633,121.8882 169.7086,121.7449 C169.4540,121.6017 169.2338,121.4160 169.0481,121.1880 C168.8625,120.9598 168.7166,120.7025 168.6105,120.4161 C168.5044,120.1296 168.4514,119.8432 168.4514,119.5567 C168.4514,119.2596 168.5044,118.9812 168.6105,118.7212 C168.7166,118.4612 168.8598,118.2226 169.0402,118.0051 C169.2205,117.7876 169.4222,117.5913 169.6449,117.4162 C169.8677,117.2412 170.1012,117.0794 170.3452,116.9309 C171.0136,118.3420 171.7987,119.6735 172.7005,120.9254 Z Z M193.1824,119.8591 L193.0074,119.8114 C192.7421,120.5328 192.3734,121.1111 191.9012,121.5461 C191.4291,121.9811 190.7952,122.1986 189.9995,122.1986 L187.8192,122.1986 C187.4479,122.1986 187.2039,122.1323 187.0872,121.9996 C186.9704,121.8670 186.9121,121.6203 186.9121,121.2596 L186.9121,112.8726 L186.9121,111.3607 C186.9121,111.3607 186.7954,111.3607 186.5619,111.3607 C186.3286,111.3607 186.0421,111.3634 185.7026,111.3687 C185.3631,111.3740 185.0076,111.3767 184.6363,111.3767 C184.2650,111.3767 183.9467,111.3767 183.6814,111.3767 L183.6814,111.6154 C183.9149,111.6154 184.1244,111.6287 184.3101,111.6552 C184.4958,111.6817 184.6549,111.7374 184.7876,111.8223 C184.9201,111.9072 185.0209,112.0319 185.0899,112.1963 C185.1588,112.3608 185.1933,112.5862 185.1933,112.8726 L185.1933,122.8351 L192.2593,122.8351 L193.1824,119.8591 Z Z M118.4988,122.8351 L113.6290,111.2175 L113.5176,111.2335 L109.1093,121.3392 C109.0350,121.4983 108.9607,121.6548 108.8864,121.8087 C108.8123,121.9624 108.7273,122.0978 108.6319,122.2144 C108.5363,122.3311 108.4196,122.4239 108.2817,122.4930 C108.1438,122.5619 107.9741,122.5964 107.7724,122.5964 L107.7724,122.8351 L110.9395,122.8351 L110.9395,122.6123 C110.8333,122.6123 110.7114,122.6123 110.5734,122.6123 C110.4355,122.6123 110.3028,122.5938 110.1756,122.5566 C110.0482,122.5195 109.9395,122.4585 109.8493,122.3736 C109.7591,122.2887 109.7141,122.1720 109.7141,122.0235 C109.7141,121.9492 109.7406,121.8272 109.7936,121.6575 C109.8467,121.4876 109.9156,121.2967 110.0005,121.0846 C110.0853,120.8724 110.1756,120.6522 110.2710,120.4241 C110.3665,120.1959 110.4567,119.9864 110.5416,119.7954 C110.6264,119.6045 110.7007,119.4400 110.7643,119.3021 C110.8281,119.1642 110.8652,119.0846 110.8758,119.0634 L115.0772,119.0634 C115.3424,119.7000 115.6024,120.3286 115.8570,120.9492 C116.1116,121.5699 116.3610,122.1986 116.6050,122.8351 L118.4988,122.8351 Z Z M114.8544,118.4745 L111.1304,118.4745 L113.0243,114.0822 L114.8544,118.4745 Z Z M127.9872,119.8910 C127.9872,119.2756 127.8466,118.7504 127.5654,118.3154 C127.2842,117.8805 126.9341,117.5011 126.5151,117.1775 C126.0960,116.8539 125.6398,116.5648 125.1465,116.3102 C124.6530,116.0555 124.1969,115.7956 123.7778,115.5304 C123.3587,115.2651 123.0086,114.9787 122.7274,114.6710 C122.4462,114.3633 122.3056,113.9919 122.3056,113.5569 C122.3056,113.2918 122.3534,113.0583 122.4489,112.8568 C122.5444,112.6551 122.6770,112.4854 122.8467,112.3475 C123.0166,112.2096 123.2128,112.1061 123.4356,112.0372 C123.6584,111.9681 123.8918,111.9337 124.1359,111.9337 C124.5602,111.9337 124.9395,112.0159 125.2737,112.1804 C125.6080,112.3448 125.8997,112.5650 126.1490,112.8408 C126.3984,113.1167 126.5946,113.4350 126.7378,113.7957 C126.8810,114.1564 126.9739,114.5330 127.0164,114.9256 L127.2710,114.9256 L127.2710,111.2175 L126.9686,111.2175 C126.9050,111.3661 126.8227,111.4908 126.7220,111.5915 C126.6212,111.6923 126.4806,111.7428 126.3003,111.7428 C126.1411,111.7428 125.9687,111.7162 125.7830,111.6632 C125.5973,111.6101 125.4037,111.5544 125.2021,111.4961 C125.0006,111.4377 124.7883,111.3820 124.5656,111.3289 C124.3427,111.2759 124.1146,111.2493 123.8812,111.2493 C123.4462,111.2493 123.0457,111.3263 122.6797,111.4801 C122.3136,111.6340 121.9980,111.8462 121.7327,112.1167 C121.4676,112.3873 121.2606,112.7056 121.1121,113.0716 C120.9636,113.4376 120.8893,113.8382 120.8893,114.2732 C120.8893,114.8248 121.0246,115.2943 121.2951,115.6815 C121.5657,116.0688 121.9051,116.4136 122.3136,116.7160 C122.7221,117.0183 123.1650,117.2969 123.6425,117.5515 C124.1199,117.8062 124.5629,118.0714 124.9713,118.3473 C125.3798,118.6231 125.7194,118.9307 125.9899,119.2703 C126.2605,119.6098 126.3957,120.0182 126.3957,120.4957 C126.3957,120.7928 126.3400,121.0553 126.2286,121.2834 C126.1172,121.5116 125.9660,121.7026 125.7750,121.8563 C125.5840,122.0102 125.3640,122.1269 125.1145,122.2065 C124.8652,122.2860 124.6079,122.3258 124.3427,122.3258 C123.4196,122.3258 122.7115,122.0712 122.2182,121.5619 C121.7248,121.0527 121.4145,120.3790 121.2872,119.5408 L121.0007,119.5408 L121.0007,121.9280 C121.5099,122.3205 122.0590,122.5991 122.6479,122.7635 C123.2367,122.9280 123.8653,123.0101 124.5337,123.0101 C124.9899,123.0101 125.4249,122.9385 125.8387,122.7953 C126.2525,122.6521 126.6185,122.4452 126.9368,122.1746 C127.2551,121.9041 127.5097,121.5779 127.7007,121.1960 C127.8916,120.8140 127.9872,120.3790 127.9872,119.8910 Z Z M141.2153,122.8351 L141.2153,122.6123 C140.9713,122.6229 140.7405,122.5938 140.5230,122.5248 C140.3055,122.4559 140.0986,122.3630 139.9023,122.2462 C139.7061,122.1296 139.5204,121.9916 139.3454,121.8325 C139.1703,121.6733 139.0031,121.5089 138.8441,121.3392 L134.2129,116.4694 C134.4994,116.2253 134.7778,115.9601 135.0484,115.6736 C135.3189,115.3872 135.5815,115.1007 135.8362,114.8143 C136.0165,114.6126 136.2022,114.3925 136.3932,114.1538 C136.5841,113.9150 136.7805,113.6763 136.9820,113.4376 C137.1836,113.1989 137.3905,112.9708 137.6027,112.7533 C137.8149,112.5358 138.0324,112.3368 138.2552,112.1565 C138.5416,111.9337 138.8043,111.7878 139.0429,111.7188 C139.2817,111.6499 139.5761,111.6154 139.9262,111.6154 L139.9262,111.3767 L136.0112,111.3767 L136.0112,111.6154 C136.0855,111.6154 136.1784,111.6127 136.2898,111.6074 C136.4011,111.6022 136.5099,111.6101 136.6160,111.6313 C136.7221,111.6525 136.8096,111.6923 136.8786,111.7506 C136.9475,111.8091 136.9820,111.8965 136.9820,112.0133 C136.9820,112.1724 136.8919,112.3899 136.7115,112.6658 C136.5311,112.9416 136.3003,113.2440 136.0192,113.5729 C135.7381,113.9018 135.4250,114.2386 135.0802,114.5835 C134.7355,114.9282 134.4012,115.2571 134.0777,115.5702 C133.7541,115.8832 133.4596,116.1590 133.1944,116.3977 C132.9292,116.6364 132.7382,116.8088 132.6214,116.9149 L132.6214,111.3926 L130.9027,111.3449 L130.9027,121.4505 C130.9027,121.7158 130.8629,121.9253 130.7833,122.0792 C130.7037,122.2330 130.5924,122.3471 130.4491,122.4214 C130.3059,122.4956 130.1415,122.5433 129.9558,122.5646 C129.7701,122.5858 129.5712,122.5964 129.3590,122.5964 L129.3590,122.8351 L132.6214,122.8351 L132.6214,117.7106 L132.9716,117.4560 L137.9210,122.8351 L141.2153,122.8351 Z Z M151.6107,117.1695 C151.6107,116.3844 151.4860,115.6365 151.2367,114.9256 C150.9874,114.2148 150.6320,113.5914 150.1705,113.0556 C149.7089,112.5199 149.1466,112.0928 148.4835,111.7746 C147.8204,111.4563 147.0750,111.2971 146.2475,111.2971 C145.4094,111.2971 144.6560,111.4483 143.9876,111.7506 C143.3193,112.0530 142.7489,112.4669 142.2768,112.9920 C141.8048,113.5172 141.4414,114.1325 141.1867,114.8381 C140.9321,115.5436 140.8047,116.2995 140.8047,117.1059 C140.8047,117.8805 140.9294,118.6178 141.1788,119.3180 C141.4281,120.0182 141.7835,120.6363 142.2450,121.1720 C142.7066,121.7078 143.2635,122.1349 143.9160,122.4532 C144.5685,122.7715 145.3033,122.9306 146.1202,122.9306 C146.9371,122.9306 147.6825,122.7794 148.3562,122.4770 C149.0299,122.1746 149.6081,121.7636 150.0909,121.2436 C150.5736,120.7238 150.9476,120.1138 151.2129,119.4135 C151.4780,118.7132 151.6107,117.9653 151.6107,117.1695 Z Z M149.6850,117.1059 L149.6691,117.1059 C149.6691,117.6470 149.6161,118.2252 149.5100,118.8406 C149.4039,119.4560 149.2182,120.0235 148.9529,120.5435 C148.6878,121.0633 148.3297,121.4956 147.8787,121.8405 C147.4279,122.1853 146.8628,122.3576 146.1838,122.3576 C145.5155,122.3576 144.9584,122.1853 144.5128,121.8405 C144.0672,121.4956 143.7118,121.0606 143.4466,120.5355 C143.1813,120.0102 142.9930,119.4400 142.8816,118.8246 C142.7702,118.2093 142.7145,117.6364 142.7145,117.1059 C142.7145,116.5648 142.7702,115.9866 142.8816,115.3712 C142.9930,114.7559 143.1813,114.1909 143.4466,113.6763 C143.7118,113.1617 144.0699,112.7320 144.5208,112.3873 C144.9717,112.0424 145.5367,111.8700 146.2157,111.8700 C146.8841,111.8700 147.4411,112.0424 147.8867,112.3873 C148.3323,112.7320 148.6878,113.1644 148.9529,113.6843 C149.2182,114.2041 149.4066,114.7718 149.5180,115.3872 C149.6294,116.0025 149.6850,116.5755 149.6850,117.1059 Z Z M161.4649,119.8910 C161.4649,119.2756 161.3243,118.7504 161.0432,118.3154 C160.7620,117.8805 160.4119,117.5011 159.9928,117.1775 C159.5738,116.8539 159.1175,116.5648 158.6242,116.3102 C158.1308,116.0555 157.6746,115.7956 157.2555,115.5304 C156.8365,115.2651 156.4863,114.9787 156.2051,114.6710 C155.9240,114.3633 155.7834,113.9919 155.7834,113.5569 C155.7834,113.2918 155.8312,113.0583 155.9267,112.8568 C156.0221,112.6551 156.1548,112.4854 156.3245,112.3475 C156.4943,112.2096 156.6906,112.1061 156.9134,112.0372 C157.1361,111.9681 157.3696,111.9337 157.6136,111.9337 C158.0379,111.9337 158.4173,112.0159 158.7515,112.1804 C159.0857,112.3448 159.3774,112.5650 159.6267,112.8408 C159.8761,113.1167 160.0724,113.4350 160.2156,113.7957 C160.3588,114.1564 160.4516,114.5330 160.4941,114.9256 L160.7487,114.9256 L160.7487,111.2175 L160.4464,111.2175 C160.3827,111.3661 160.3005,111.4908 160.1997,111.5915 C160.0989,111.6923 159.9583,111.7428 159.7780,111.7428 C159.6189,111.7428 159.4464,111.7162 159.2607,111.6632 C159.0751,111.6101 158.8815,111.5544 158.6799,111.4961 C158.4783,111.4377 158.2661,111.3820 158.0433,111.3289 C157.8204,111.2759 157.5924,111.2493 157.3589,111.2493 C156.9239,111.2493 156.5234,111.3263 156.1575,111.4801 C155.7914,111.6340 155.4757,111.8462 155.2105,112.1167 C154.9453,112.3873 154.7384,112.7056 154.5899,113.0716 C154.4413,113.4376 154.3670,113.8382 154.3670,114.2732 C154.3670,114.8248 154.5023,115.2943 154.7729,115.6815 C155.0434,116.0688 155.3829,116.4136 155.7914,116.7160 C156.1998,117.0183 156.6428,117.2969 157.1203,117.5515 C157.5977,117.8062 158.0406,118.0714 158.4491,118.3473 C158.8576,118.6231 159.1971,118.9307 159.4677,119.2703 C159.7382,119.6098 159.8734,120.0182 159.8734,120.4957 C159.8734,120.7928 159.8178,121.0553 159.7063,121.2834 C159.5949,121.5116 159.4437,121.7026 159.2528,121.8563 C159.0618,122.0102 158.8417,122.1269 158.5923,122.2065 C158.3430,122.2860 158.0857,122.3258 157.8204,122.3258 C156.8974,122.3258 156.1893,122.0712 155.6959,121.5619 C155.2026,121.0527 154.8923,120.3790 154.7649,119.5408 L154.4784,119.5408 L154.4784,121.9280 C154.9877,122.3205 155.5368,122.5991 156.1256,122.7635 C156.7144,122.9280 157.3431,123.0101 158.0114,123.0101 C158.4676,123.0101 158.9026,122.9385 159.3165,122.7953 C159.7302,122.6521 160.0962,122.4452 160.4145,122.1746 C160.7329,121.9041 160.9875,121.5779 161.1784,121.1960 C161.3694,120.8140 161.4649,120.3790 161.4649,119.8910 Z Z M206.2195,122.8351 L201.3497,111.2175 L201.2383,111.2335 L196.8301,121.3392 C196.7558,121.4983 196.6815,121.6548 196.6072,121.8087 C196.5330,121.9624 196.4480,122.0978 196.3526,122.2144 C196.2570,122.3311 196.1404,122.4239 196.0025,122.4930 C195.8645,122.5619 195.6948,122.5964 195.4932,122.5964 L195.4932,122.8351 L198.6602,122.8351 L198.6602,122.6123 C198.5541,122.6123 198.4321,122.6123 198.2941,122.6123 C198.1562,122.6123 198.0235,122.5938 197.8963,122.5566 C197.7690,122.5195 197.6603,122.4585 197.5700,122.3736 C197.4799,122.2887 197.4348,122.1720 197.4348,122.0235 C197.4348,121.9492 197.4613,121.8272 197.5144,121.6575 C197.5674,121.4876 197.6363,121.2967 197.7212,121.0846 C197.8061,120.8724 197.8963,120.6522 197.9917,120.4241 C198.0873,120.1959 198.1774,119.9864 198.2623,119.7954 C198.3472,119.6045 198.4214,119.4400 198.4851,119.3021 C198.5488,119.1642 198.5859,119.0846 198.5966,119.0634 L202.7979,119.0634 C203.0632,119.7000 203.3232,120.3286 203.5777,120.9492 C203.8323,121.5699 204.0817,122.1986 204.3258,122.8351 L206.2195,122.8351 Z Z M202.5751,118.4745 L198.8512,118.4745 L200.7450,114.0822 L202.5751,118.4745 Z Z M215.7079,119.8910 C215.7079,119.2756 215.5673,118.7504 215.2862,118.3154 C215.0050,117.8805 214.6548,117.5011 214.2358,117.1775 C213.8167,116.8539 213.3605,116.5648 212.8672,116.3102 C212.3738,116.0555 211.9176,115.7956 211.4985,115.5304 C211.0794,115.2651 210.7293,114.9787 210.4481,114.6710 C210.1670,114.3633 210.0264,113.9919 210.0264,113.5569 C210.0264,113.2918 210.0741,113.0583 210.1697,112.8568 C210.2651,112.6551 210.3977,112.4854 210.5675,112.3475 C210.7373,112.2096 210.9335,112.1061 211.1563,112.0372 C211.3791,111.9681 211.6126,111.9337 211.8566,111.9337 C212.2809,111.9337 212.6603,112.0159 212.9944,112.1804 C213.3287,112.3448 213.6204,112.5650 213.8697,112.8408 C214.1191,113.1167 214.3154,113.4350 214.4586,113.7957 C214.6018,114.1564 214.6946,114.5330 214.7371,114.9256 L214.9917,114.9256 L214.9917,111.2175 L214.6893,111.2175 C214.6257,111.3661 214.5434,111.4908 214.4427,111.5915 C214.3419,111.6923 214.2013,111.7428 214.0210,111.7428 C213.8618,111.7428 213.6894,111.7162 213.5037,111.6632 C213.3180,111.6101 213.1245,111.5544 212.9228,111.4961 C212.7213,111.4377 212.5091,111.3820 212.2863,111.3289 C212.0634,111.2759 211.8353,111.2493 211.6019,111.2493 C211.1669,111.2493 210.7664,111.3263 210.4004,111.4801 C210.0343,111.6340 209.7187,111.8462 209.4535,112.1167 C209.1883,112.3873 208.9814,112.7056 208.8329,113.0716 C208.6843,113.4376 208.6100,113.8382 208.6100,114.2732 C208.6100,114.8248 208.7453,115.2943 209.0159,115.6815 C209.2864,116.0688 209.6259,116.4136 210.0343,116.7160 C210.4428,117.0183 210.8858,117.2969 211.3633,117.5515 C211.8406,117.8062 212.2836,118.0714 212.6921,118.3473 C213.1005,118.6231 213.4401,118.9307 213.7106,119.2703 C213.9812,119.6098 214.1164,120.0182 214.1164,120.4957 C214.1164,120.7928 214.0608,121.0553 213.9493,121.2834 C213.8379,121.5116 213.6867,121.7026 213.4957,121.8563 C213.3048,122.0102 213.0847,122.1269 212.8353,122.2065 C212.5860,122.2860 212.3287,122.3258 212.0634,122.3258 C211.1404,122.3258 210.4322,122.0712 209.9389,121.5619 C209.4456,121.0527 209.1352,120.3790 209.0079,119.5408 L208.7214,119.5408 L208.7214,121.9280 C209.2307,122.3205 209.7797,122.5991 210.3686,122.7635 C210.9574,122.9280 211.5860,123.0101 212.2544,123.0101 C212.7106,123.0101 213.1456,122.9385 213.5595,122.7953 C213.9732,122.6521 214.3392,122.4452 214.6575,122.1746 C214.9758,121.9041 215.2304,121.5779 215.4214,121.1960 C215.6124,120.8140 215.7079,120.3790 215.7079,119.8910 Z Z M228.9360,122.8351 L228.9360,122.6123 C228.6920,122.6229 228.4612,122.5938 228.2437,122.5248 C228.0262,122.4559 227.8193,122.3630 227.6231,122.2462 C227.4268,122.1296 227.2411,121.9916 227.0661,121.8325 C226.8910,121.6733 226.7239,121.5089 226.5648,121.3392 L221.9336,116.4694 C222.2201,116.2253 222.4986,115.9601 222.7691,115.6736 C223.0397,115.3872 223.3022,115.1007 223.5569,114.8143 C223.7372,114.6126 223.9229,114.3925 224.1139,114.1538 C224.3049,113.9150 224.5012,113.6763 224.7028,113.4376 C224.9043,113.1989 225.1112,112.9708 225.3234,112.7533 C225.5357,112.5358 225.7531,112.3368 225.9759,112.1565 C226.2623,111.9337 226.5250,111.7878 226.7636,111.7188 C227.0024,111.6499 227.2969,111.6154 227.6469,111.6154 L227.6469,111.3767 L223.7320,111.3767 L223.7320,111.6154 C223.8062,111.6154 223.8991,111.6127 224.0105,111.6074 C224.1219,111.6022 224.2307,111.6101 224.3368,111.6313 C224.4428,111.6525 224.5303,111.6923 224.5993,111.7506 C224.6683,111.8091 224.7028,111.8965 224.7028,112.0133 C224.7028,112.1724 224.6126,112.3899 224.4322,112.6658 C224.2518,112.9416 224.0211,113.2440 223.7399,113.5729 C223.4588,113.9018 223.1458,114.2386 222.8009,114.5835 C222.4562,114.9282 222.1219,115.2571 221.7984,115.5702 C221.4748,115.8832 221.1803,116.1590 220.9152,116.3977 C220.6499,116.6364 220.4589,116.8088 220.3422,116.9149 L220.3422,111.3926 L218.6234,111.3449 L218.6234,121.4505 C218.6234,121.7158 218.5836,121.9253 218.5041,122.0792 C218.4245,122.2330 218.3131,122.3471 218.1699,122.4214 C218.0267,122.4956 217.8622,122.5433 217.6765,122.5646 C217.4909,122.5858 217.2919,122.5964 217.0797,122.5964 L217.0797,122.8351 L220.3422,122.8351 L220.3422,117.7106 L220.6923,117.4560 L225.6418,122.8351 L228.9360,122.8351 Z Z M239.3314,117.1695 C239.3314,116.3844 239.2067,115.6365 238.9574,114.9256 C238.7081,114.2148 238.3527,113.5914 237.8912,113.0556 C237.4297,112.5199 236.8673,112.0928 236.2043,111.7746 C235.5411,111.4563 234.7958,111.2971 233.9683,111.2971 C233.1301,111.2971 232.3768,111.4483 231.7083,111.7506 C231.0400,112.0530 230.4697,112.4669 229.9976,112.9920 C229.5255,113.5172 229.1621,114.1325 228.9074,114.8381 C228.6528,115.5436 228.5255,116.2995 228.5255,117.1059 C228.5255,117.8805 228.6501,118.6178 228.8995,119.3180 C229.1488,120.0182 229.5042,120.6363 229.9658,121.1720 C230.4273,121.7078 230.9842,122.1349 231.6367,122.4532 C232.2892,122.7715 233.0240,122.9306 233.8409,122.9306 C234.6579,122.9306 235.4032,122.7794 236.0769,122.4770 C236.7506,122.1746 237.3288,121.7636 237.8116,121.2436 C238.2944,120.7238 238.6683,120.1138 238.9336,119.4135 C239.1988,118.7132 239.3314,117.9653 239.3314,117.1695 Z Z M237.4057,117.1059 L237.3899,117.1059 C237.3899,117.6470 237.3368,118.2252 237.2307,118.8406 C237.1246,119.4560 236.9389,120.0235 236.6737,120.5435 C236.4085,121.0633 236.0504,121.4956 235.5994,121.8405 C235.1486,122.1853 234.5836,122.3576 233.9045,122.3576 C233.2362,122.3576 232.6791,122.1853 232.2336,121.8405 C231.7879,121.4956 231.4325,121.0606 231.1673,120.5355 C230.9021,120.0102 230.7137,119.4400 230.6023,118.8246 C230.4909,118.2093 230.4353,117.6364 230.4353,117.1059 C230.4353,116.5648 230.4909,115.9866 230.6023,115.3712 C230.7137,114.7559 230.9021,114.1909 231.1673,113.6763 C231.4325,113.1617 231.7906,112.7320 232.2416,112.3873 C232.6924,112.0424 233.2574,111.8700 233.9365,111.8700 C234.6048,111.8700 235.1619,112.0424 235.6074,112.3873 C236.0530,112.7320 236.4085,113.1644 236.6737,113.6843 C236.9389,114.2041 237.1273,114.7718 237.2387,115.3872 C237.3501,116.0025 237.4057,116.5755 237.4057,117.1059 Z Z M249.1857,119.8910 C249.1857,119.2756 249.0451,118.7504 248.7639,118.3154 C248.4827,117.8805 248.1326,117.5011 247.7135,117.1775 C247.2945,116.8539 246.8383,116.5648 246.3449,116.3102 C245.8515,116.0555 245.3954,115.7956 244.9762,115.5304 C244.5572,115.2651 244.2071,114.9787 243.9258,114.6710 C243.6447,114.3633 243.5041,113.9919 243.5041,113.5569 C243.5041,113.2918 243.5519,113.0583 243.6474,112.8568 C243.7429,112.6551 243.8755,112.4854 244.0452,112.3475 C244.2150,112.2096 244.4113,112.1061 244.6341,112.0372 C244.8569,111.9681 245.0903,111.9337 245.3343,111.9337 C245.7587,111.9337 246.1380,112.0159 246.4722,112.1804 C246.8065,112.3448 247.0982,112.5650 247.3475,112.8408 C247.5969,113.1167 247.7931,113.4350 247.9363,113.7957 C248.0795,114.1564 248.1724,114.5330 248.2149,114.9256 L248.4694,114.9256 L248.4694,111.2175 L248.1671,111.2175 C248.1035,111.3661 248.0212,111.4908 247.9205,111.5915 C247.8197,111.6923 247.6790,111.7428 247.4987,111.7428 C247.3396,111.7428 247.1672,111.7162 246.9815,111.6632 C246.7958,111.6101 246.6022,111.5544 246.4006,111.4961 C246.1990,111.4377 245.9868,111.3820 245.7641,111.3289 C245.5412,111.2759 245.3131,111.2493 245.0796,111.2493 C244.6447,111.2493 244.2442,111.3263 243.8782,111.4801 C243.5121,111.6340 243.1965,111.8462 242.9312,112.1167 C242.6660,112.3873 242.4591,112.7056 242.3106,113.0716 C242.1620,113.4376 242.0877,113.8382 242.0877,114.2732 C242.0877,114.8248 242.2231,115.2943 242.4936,115.6815 C242.7642,116.0688 243.1036,116.4136 243.5121,116.7160 C243.9206,117.0183 244.3635,117.2969 244.8410,117.5515 C245.3184,117.8062 245.7614,118.0714 246.1698,118.3473 C246.5783,118.6231 246.9179,118.9307 247.1884,119.2703 C247.4590,119.6098 247.5942,120.0182 247.5942,120.4957 C247.5942,120.7928 247.5385,121.0553 247.4270,121.2834 C247.3156,121.5116 247.1645,121.7026 246.9735,121.8563 C246.7825,122.0102 246.5624,122.1269 246.3130,122.2065 C246.0637,122.2860 245.8064,122.3258 245.5412,122.3258 C244.6181,122.3258 243.9100,122.0712 243.4167,121.5619 C242.9233,121.0527 242.6130,120.3790 242.4856,119.5408 L242.1991,119.5408 L242.1991,121.9280 C242.7084,122.3205 243.2575,122.5991 243.8464,122.7635 C244.4351,122.9280 245.0638,123.0101 245.7321,123.0101 C246.1884,123.0101 246.6234,122.9385 247.0372,122.7953 C247.4510,122.6521 247.8170,122.4452 248.1353,122.1746 C248.4536,121.9041 248.7082,121.5779 248.8992,121.1960 C249.0901,120.8140 249.1857,120.3790 249.1857,119.8910 Z"
       style="stroke-width: 0.2160; stroke: #e1d2bd; stroke-dasharray: none; stroke-linecap: butt; stroke-linejoin: miter; fill: url(#grad2); "
       id="path5" />
    <defs
       id="defs10">
      <linearGradient
         id="grad3">
        <stop
           offset="0.0000%"
           stop-color="#ffffff"
           stop-opacity="1.0000"
           id="stop6" />
        <stop
           offset="15.0000%"
           stop-color="#878783"
           stop-opacity="1.0000"
           id="stop7" />
        <stop
           offset="44.0000%"
           stop-color="#fbfbfb"
           stop-opacity="1.0000"
           id="stop8" />
        <stop
           offset="71.0000%"
           stop-color="#949491"
           stop-opacity="1.0000"
           id="stop9" />
        <stop
           offset="100.0000%"
           stop-color="#ffffff"
           stop-opacity="1.0000"
           id="stop10" />
      </linearGradient>
      <linearGradient
         xlink:href="#grad3"
         id="grad4"
         x1="0"
         y1="0"
         x2="0"
         y2="1"
         gradientTransform="rotate(357 .5 .5)"
         gradientUnits="objectBoundingBox" />
    </defs>
    <path
       d="  M116.4257,131.3677 L115.7594,129.4784 L115.0908,131.3677 L116.4257,131.3677 Z Z M116.0760,128.6579 L117.3536,132.1438 C117.4672,132.4587 117.5774,132.6506 117.6845,132.7206 C117.7916,132.7895 117.9626,132.8244 118.1998,132.8244 L118.3001,132.8244 L118.3001,132.9580 L116.0087,132.9580 L116.0087,132.8244 C116.3728,132.8202 116.6001,132.8012 116.6894,132.7672 C116.7788,132.7333 116.8228,132.6686 116.8228,132.5764 C116.8228,132.5424 116.8185,132.5053 116.8086,132.4640 C116.7987,132.4226 116.7821,132.3686 116.7589,132.3029 L116.4743,131.5077 L115.0423,131.5077 L114.9706,131.7123 C114.9341,131.8119 114.9067,131.9084 114.8867,132.0017 C114.8679,132.0950 114.8581,132.1745 114.8581,132.2402 C114.8581,132.4247 114.9276,132.5679 115.0665,132.6707 C115.2056,132.7735 115.4008,132.8244 115.6535,132.8244 L115.6987,132.8244 L115.6987,132.9580 L113.5342,132.9580 L113.5342,132.8244 C113.8276,132.8244 114.0824,132.7248 114.2997,132.5265 C114.5171,132.3272 114.6970,132.0303 114.8392,131.6349 L115.9050,128.6579 L116.0760,128.6579 Z Z M173.6977,131.3677 L173.0314,129.4784 L172.3628,131.3677 L173.6977,131.3677 Z Z M173.3480,128.6579 L174.6255,132.1438 C174.7391,132.4587 174.8494,132.6506 174.9565,132.7206 C175.0635,132.7895 175.2345,132.8244 175.4718,132.8244 L175.5721,132.8244 L175.5721,132.9580 L173.2807,132.9580 L173.2807,132.8244 C173.6448,132.8202 173.8720,132.8012 173.9614,132.7672 C174.0507,132.7333 174.0948,132.6686 174.0948,132.5764 C174.0948,132.5424 174.0904,132.5053 174.0804,132.4640 C174.0707,132.4226 174.0540,132.3686 174.0309,132.3029 L173.7463,131.5077 L172.3142,131.5077 L172.2424,131.7123 C172.2060,131.8119 172.1785,131.9084 172.1587,132.0017 C172.1398,132.0950 172.1300,132.1745 172.1300,132.2402 C172.1300,132.4247 172.1996,132.5679 172.3385,132.6707 C172.4775,132.7735 172.6728,132.8244 172.9255,132.8244 L172.9706,132.8244 L172.9706,132.9580 L170.8061,132.9580 L170.8061,132.8244 C171.0995,132.8244 171.3544,132.7248 171.5717,132.5265 C171.7891,132.3272 171.9689,132.0303 172.1112,131.6349 L173.1770,128.6579 L173.3480,128.6579 Z Z M121.3959,132.1884 C121.3959,132.4757 121.4290,132.6538 121.4963,132.7216 C121.5625,132.7905 121.7324,132.8244 122.0038,132.8244 C122.6083,132.8244 123.0397,132.6739 123.2979,132.3728 C123.5571,132.0717 123.6862,131.5713 123.6862,130.8715 C123.6862,130.1442 123.5505,129.6301 123.2791,129.3279 C123.0066,129.0257 122.5444,128.8741 121.8913,128.8741 C121.6881,128.8741 121.5547,128.9028 121.4907,128.9610 C121.4278,129.0194 121.3959,129.1476 121.3959,129.3459 L121.3959,132.1884 Z Z M119.9065,128.7469 L122.0424,128.7469 C122.2840,128.7469 122.4992,128.7618 122.6867,128.7904 C122.8732,128.8190 123.0419,128.8646 123.1909,128.9271 C123.5616,129.0745 123.8682,129.3300 124.1099,129.6958 C124.3527,130.0616 124.4739,130.4507 124.4739,130.8651 C124.4739,131.2066 124.3824,131.5395 124.1993,131.8650 C124.0161,132.1894 123.7767,132.4449 123.4811,132.6284 C123.2979,132.7407 123.0828,132.8234 122.8368,132.8775 C122.5895,132.9315 122.2951,132.9580 121.9518,132.9580 L119.9065,132.9580 L119.9065,132.8244 C120.2815,132.8138 120.5176,132.7672 120.6147,132.6845 C120.7119,132.6018 120.7603,132.4173 120.7603,132.1321 L120.7603,129.5728 C120.7603,129.2897 120.7119,129.1052 120.6147,129.0215 C120.5176,128.9377 120.2815,128.8911 119.9065,128.8804 L119.9065,128.7469 Z Z M126.1443,128.7469 L128.4666,128.7469 L128.4666,128.8804 C128.4600,128.8804 128.4490,128.8804 128.4335,128.8804 C127.9018,128.8932 127.6348,128.9802 127.6326,129.1413 C127.6326,129.1677 127.6359,129.1986 127.6436,129.2314 C127.6513,129.2643 127.6679,129.3172 127.6944,129.3893 L128.7380,132.2466 L129.5521,130.0446 C129.6019,129.9163 129.6383,129.8029 129.6614,129.7022 C129.6858,129.6014 129.6978,129.5187 129.6978,129.4552 C129.6978,129.2515 129.6338,129.1063 129.5070,129.0183 C129.3801,128.9303 129.1650,128.8847 128.8637,128.8804 L128.8637,128.7469 L130.8706,128.7469 L130.8706,128.8804 C130.5947,128.8889 130.3774,128.9663 130.2197,129.1137 C130.0607,129.2600 129.9009,129.5505 129.7398,129.9831 L128.5791,133.0471 L128.4214,133.0471 L127.0434,129.3840 C126.9629,129.1741 126.8680,129.0384 126.7588,128.9748 C126.6485,128.9123 126.4444,128.8804 126.1443,128.8804 L126.1443,128.7469 Z Z M134.5334,128.7342 C134.0942,128.7342 133.7788,128.8953 133.5879,129.2176 C133.3970,129.5388 133.3021,130.0838 133.3021,130.8525 C133.3021,131.6211 133.3970,132.1660 133.5879,132.4873 C133.7788,132.8096 134.0942,132.9708 134.5334,132.9708 C134.9725,132.9708 135.2891,132.8096 135.4822,132.4862 C135.6753,132.1628 135.7712,131.6189 135.7712,130.8525 C135.7712,130.0859 135.6753,129.5420 135.4822,129.2187 C135.2891,128.8953 134.9725,128.7342 134.5334,128.7342 Z Z M134.5356,128.6006 C134.7398,128.6006 134.9339,128.6334 135.1181,128.7002 C135.3024,128.7660 135.4744,128.8646 135.6345,128.9949 C135.9213,129.2293 136.1452,129.5113 136.3085,129.8432 C136.4707,130.1740 136.5523,130.5110 136.5523,130.8525 C136.5523,131.1981 136.4707,131.5353 136.3085,131.8639 C136.1452,132.1915 135.9213,132.4735 135.6345,132.7099 C135.4767,132.8383 135.3046,132.9358 135.1170,133.0036 C134.9294,133.0704 134.7353,133.1043 134.5356,133.1043 C134.3734,133.1043 134.2157,133.0821 134.0612,133.0375 C133.9079,132.9930 133.7600,132.9262 133.6200,132.8372 C133.2922,132.6346 133.0263,132.3495 132.8212,131.9815 C132.6170,131.6137 132.5144,131.2373 132.5144,130.8525 C132.5144,130.5567 132.5773,130.2630 132.7020,129.9714 C132.8267,129.6809 133.0044,129.4159 133.2349,129.1784 C133.4246,128.9834 133.6276,128.8392 133.8416,128.7437 C134.0556,128.6483 134.2874,128.6006 134.5356,128.6006 Z Z M142.1944,128.6069 L142.3687,128.6069 L142.3687,130.6744 L142.2231,130.6744 C142.0961,130.0202 141.9097,129.5346 141.6659,129.2165 C141.4210,128.8996 141.1121,128.7405 140.7391,128.7405 C140.3432,128.7405 140.0552,128.9006 139.8764,129.2208 C139.6977,129.5399 139.6083,130.0594 139.6083,130.7783 C139.6083,131.5088 139.7065,132.0568 139.9029,132.4226 C140.0993,132.7884 140.3928,132.9708 140.7856,132.9708 C141.0502,132.9708 141.2753,132.8786 141.4585,132.6941 C141.6416,132.5107 141.7332,132.2848 141.7332,132.0176 L141.7332,131.6858 C141.7332,131.4738 141.6847,131.3359 141.5876,131.2691 C141.4904,131.2034 141.2125,131.1642 140.7536,131.1514 L140.7536,131.0178 L143.1431,131.0178 L143.1431,131.1514 C142.7758,131.1780 142.5552,131.2245 142.4801,131.2914 C142.4063,131.3571 142.3687,131.4886 142.3687,131.6858 L142.3687,133.1043 L142.2296,133.1043 C142.1800,132.8848 142.1381,132.7396 142.1050,132.6696 C142.0719,132.5997 142.0311,132.5636 141.9837,132.5636 C141.9693,132.5636 141.8325,132.6538 141.5755,132.8340 C141.3184,133.0142 141.0481,133.1043 140.7656,133.1043 C140.5483,133.1043 140.3353,133.0556 140.1257,132.9580 C139.9173,132.8616 139.7176,132.7174 139.5290,132.5265 C139.3061,132.3029 139.1339,132.0452 139.0115,131.7537 C138.8890,131.4610 138.8273,131.1610 138.8273,130.8525 C138.8273,130.5831 138.8780,130.3150 138.9807,130.0467 C139.0832,129.7785 139.2277,129.5335 139.4154,129.3119 C139.6160,129.0777 139.8279,128.9017 140.0530,128.7840 C140.2780,128.6663 140.5185,128.6069 140.7722,128.6069 C140.9367,128.6069 141.0878,128.6366 141.2280,128.6950 C141.3680,128.7543 141.5126,128.8497 141.6605,128.9823 C141.6847,129.0035 141.7145,129.0310 141.7520,129.0660 C141.8425,129.1508 141.9087,129.1933 141.9516,129.1933 C142.0013,129.1933 142.0454,129.1476 142.0840,129.0544 C142.1227,128.9610 142.1602,128.8115 142.1944,128.6069 Z Z M147.4061,131.3677 L146.7399,129.4784 L146.0712,131.3677 L147.4061,131.3677 Z Z M147.0565,128.6579 L148.3340,132.1438 C148.4476,132.4587 148.5579,132.6506 148.6650,132.7206 C148.7720,132.7895 148.9430,132.8244 149.1802,132.8244 L149.2806,132.8244 L149.2806,132.9580 L146.9891,132.9580 L146.9891,132.8244 C147.3533,132.8202 147.5805,132.8012 147.6698,132.7672 C147.7591,132.7333 147.8033,132.6686 147.8033,132.5764 C147.8033,132.5424 147.7989,132.5053 147.7890,132.4640 C147.7791,132.4226 147.7625,132.3686 147.7394,132.3029 L147.4547,131.5077 L146.0227,131.5077 L145.9510,131.7123 C145.9146,131.8119 145.8870,131.9084 145.8671,132.0017 C145.8483,132.0950 145.8385,132.1745 145.8385,132.2402 C145.8385,132.4247 145.9080,132.5679 146.0470,132.6707 C146.1860,132.7735 146.3812,132.8244 146.6339,132.8244 L146.6791,132.8244 L146.6791,132.9580 L144.5145,132.9580 L144.5145,132.8244 C144.8080,132.8244 145.0629,132.7248 145.2802,132.5265 C145.4976,132.3272 145.6774,132.0303 145.8197,131.6349 L146.8855,128.6579 L147.0565,128.6579 Z Z M152.3762,132.1884 C152.3762,132.4757 152.4093,132.6538 152.4768,132.7216 C152.5430,132.7905 152.7128,132.8244 152.9842,132.8244 C153.5888,132.8244 154.0201,132.6739 154.2783,132.3728 C154.5375,132.0717 154.6666,131.5713 154.6666,130.8715 C154.6666,130.1442 154.5309,129.6301 154.2595,129.3279 C153.9871,129.0257 153.5249,128.8741 152.8717,128.8741 C152.6686,128.8741 152.5352,128.9028 152.4712,128.9610 C152.4083,129.0194 152.3762,129.1476 152.3762,129.3459 L152.3762,132.1884 Z Z M150.8870,128.7469 L153.0227,128.7469 C153.2645,128.7469 153.4796,128.7618 153.6671,128.7904 C153.8535,128.8190 154.0223,128.8646 154.1714,128.9271 C154.5420,129.0745 154.8487,129.3300 155.0903,129.6958 C155.3330,130.0616 155.4544,130.4507 155.4544,130.8651 C155.4544,131.2066 155.3629,131.5395 155.1797,131.8650 C154.9965,132.1894 154.7571,132.4449 154.4615,132.6284 C154.2783,132.7407 154.0632,132.8234 153.8171,132.8775 C153.5699,132.9315 153.2754,132.9580 152.9323,132.9580 L150.8870,132.9580 L150.8870,132.8244 C151.2620,132.8138 151.4981,132.7672 151.5952,132.6845 C151.6923,132.6018 151.7408,132.4173 151.7408,132.1321 L151.7408,129.5728 C151.7408,129.2897 151.6923,129.1052 151.5952,129.0215 C151.4981,128.9377 151.2620,128.8911 150.8870,128.8804 L150.8870,128.7469 Z Z M159.7427,128.7342 C159.3035,128.7342 158.9881,128.8953 158.7972,129.2176 C158.6063,129.5388 158.5114,130.0838 158.5114,130.8525 C158.5114,131.6211 158.6063,132.1660 158.7972,132.4873 C158.9881,132.8096 159.3035,132.9708 159.7427,132.9708 C160.1818,132.9708 160.4984,132.8096 160.6915,132.4862 C160.8845,132.1628 160.9805,131.6189 160.9805,130.8525 C160.9805,130.0859 160.8845,129.5420 160.6915,129.2187 C160.4984,128.8953 160.1818,128.7342 159.7427,128.7342 Z Z M159.7449,128.6006 C159.9490,128.6006 160.1432,128.6334 160.3274,128.7002 C160.5117,128.7660 160.6837,128.8646 160.8438,128.9949 C161.1306,129.2293 161.3544,129.5113 161.5178,129.8432 C161.6800,130.1740 161.7616,130.5110 161.7616,130.8525 C161.7616,131.1981 161.6800,131.5353 161.5178,131.8639 C161.3544,132.1915 161.1306,132.4735 160.8438,132.7099 C160.6860,132.8383 160.5139,132.9358 160.3263,133.0036 C160.1387,133.0704 159.9446,133.1043 159.7449,133.1043 C159.5827,133.1043 159.4250,133.0821 159.2705,133.0375 C159.1171,132.9930 158.9693,132.9262 158.8292,132.8372 C158.5015,132.6346 158.2356,132.3495 158.0305,131.9815 C157.8263,131.6137 157.7237,131.2373 157.7237,130.8525 C157.7237,130.5567 157.7866,130.2630 157.9113,129.9714 C158.0359,129.6809 158.2137,129.4159 158.4442,129.1784 C158.6339,128.9834 158.8369,128.8392 159.0509,128.7437 C159.2649,128.6483 159.4967,128.6006 159.7449,128.6006 Z Z M166.9624,128.6600 L167.0947,128.6600 L167.0947,130.3881 L166.9624,130.3881 C166.7980,129.8464 166.5806,129.4350 166.3103,129.1551 C166.0400,128.8741 165.7256,128.7342 165.3671,128.7342 C165.1221,128.7342 164.9203,128.8021 164.7625,128.9377 C164.6047,129.0734 164.5263,129.2451 164.5263,129.4541 C164.5263,129.6947 164.6235,129.8919 164.8176,130.0488 C165.0118,130.2047 165.3760,130.3605 165.9110,130.5153 C166.5122,130.6923 166.9160,130.8768 167.1223,131.0709 C167.3286,131.2638 167.4324,131.5267 167.4324,131.8586 C167.4324,132.2127 167.3076,132.5085 167.0572,132.7470 C166.8079,132.9856 166.4946,133.1043 166.1206,133.1043 C165.9021,133.1043 165.7069,133.0715 165.5315,133.0047 C165.3571,132.9390 165.1784,132.8276 164.9953,132.6728 C164.8938,132.5838 164.8198,132.5265 164.7724,132.5000 C164.7250,132.4746 164.6797,132.4618 164.6366,132.4618 C164.5573,132.4618 164.4878,132.5128 164.4270,132.6135 C164.3665,132.7152 164.3222,132.8584 164.2948,133.0418 L164.1557,133.0418 L164.2274,131.1578 L164.3884,131.1578 C164.4955,131.6974 164.7073,132.1342 165.0218,132.4661 C165.3362,132.7980 165.6892,132.9644 166.0820,132.9644 C166.3600,132.9644 166.5884,132.8902 166.7671,132.7428 C166.9458,132.5943 167.0352,132.4057 167.0352,132.1756 C167.0352,131.9296 166.9370,131.7271 166.7406,131.5692 C166.5453,131.4101 166.1658,131.2469 165.6032,131.0773 C165.0713,130.9171 164.6974,130.7412 164.4801,130.5471 C164.2638,130.3531 164.1557,130.1050 164.1557,129.8029 C164.1557,129.4699 164.2726,129.1858 164.5077,128.9515 C164.7426,128.7172 165.0317,128.6006 165.3748,128.6006 C165.5580,128.6006 165.7256,128.6302 165.8790,128.6907 C166.0323,128.7501 166.1780,128.8433 166.3159,128.9695 C166.3302,128.9844 166.3534,129.0066 166.3831,129.0352 C166.4979,129.1444 166.5872,129.1996 166.6523,129.1996 C166.7340,129.1996 166.7980,129.1615 166.8431,129.0851 C166.8884,129.0077 166.9282,128.8667 166.9624,128.6600 Z Z M180.2830,128.6600 L180.4153,128.6600 L180.4153,130.3881 L180.2830,130.3881 C180.1186,129.8464 179.9012,129.4350 179.6310,129.1551 C179.3607,128.8741 179.0463,128.7342 178.6878,128.7342 C178.4428,128.7342 178.2409,128.8021 178.0830,128.9377 C177.9253,129.0734 177.8470,129.2451 177.8470,129.4541 C177.8470,129.6947 177.9441,129.8919 178.1383,130.0488 C178.3325,130.2047 178.6965,130.3605 179.2316,130.5153 C179.8329,130.6923 180.2367,130.8768 180.4429,131.0709 C180.6492,131.2638 180.7530,131.5267 180.7530,131.8586 C180.7530,132.2127 180.6283,132.5085 180.3779,132.7470 C180.1285,132.9856 179.8152,133.1043 179.4412,133.1043 C179.2228,133.1043 179.0275,133.0715 178.8521,133.0047 C178.6778,132.9390 178.4991,132.8276 178.3159,132.6728 C178.2145,132.5838 178.1405,132.5265 178.0930,132.5000 C178.0456,132.4746 178.0004,132.4618 177.9573,132.4618 C177.8779,132.4618 177.8084,132.5128 177.7477,132.6135 C177.6870,132.7152 177.6429,132.8584 177.6153,133.0418 L177.4763,133.0418 L177.5480,131.1578 L177.7091,131.1578 C177.8162,131.6974 178.0280,132.1342 178.3424,132.4661 C178.6569,132.7980 179.0099,132.9644 179.4026,132.9644 C179.6806,132.9644 179.9090,132.8902 180.0877,132.7428 C180.2664,132.5943 180.3557,132.4057 180.3557,132.1756 C180.3557,131.9296 180.2576,131.7271 180.0613,131.5692 C179.8660,131.4101 179.4865,131.2469 178.9238,131.0773 C178.3920,130.9171 178.0180,130.7412 177.8007,130.5471 C177.5844,130.3531 177.4763,130.1050 177.4763,129.8029 C177.4763,129.4699 177.5933,129.1858 177.8283,128.9515 C178.0632,128.7172 178.3523,128.6006 178.6954,128.6006 C178.8785,128.6006 179.0463,128.6302 179.1997,128.6907 C179.3529,128.7501 179.4986,128.8433 179.6365,128.9695 C179.6508,128.9844 179.6739,129.0066 179.7038,129.0352 C179.8185,129.1444 179.9079,129.1996 179.9729,129.1996 C180.0546,129.1996 180.1186,129.1615 180.1638,129.0851 C180.2091,129.0077 180.2487,128.8667 180.2830,128.6600 Z Z M185.9647,128.6600 L186.0970,128.6600 L186.0970,130.3881 L185.9647,130.3881 C185.8003,129.8464 185.5829,129.4350 185.3126,129.1551 C185.0423,128.8741 184.7279,128.7342 184.3694,128.7342 C184.1244,128.7342 183.9226,128.8021 183.7648,128.9377 C183.6070,129.0734 183.5286,129.2451 183.5286,129.4541 C183.5286,129.6947 183.6258,129.8919 183.8199,130.0488 C184.0141,130.2047 184.3783,130.3605 184.9133,130.5153 C185.5145,130.6923 185.9183,130.8768 186.1246,131.0709 C186.3309,131.2638 186.4347,131.5267 186.4347,131.8586 C186.4347,132.2127 186.3099,132.5085 186.0595,132.7470 C185.8102,132.9856 185.4969,133.1043 185.1229,133.1043 C184.9044,133.1043 184.7092,133.0715 184.5338,133.0047 C184.3594,132.9390 184.1807,132.8276 183.9976,132.6728 C183.8961,132.5838 183.8221,132.5265 183.7748,132.5000 C183.7273,132.4746 183.6820,132.4618 183.6389,132.4618 C183.5596,132.4618 183.4901,132.5128 183.4293,132.6135 C183.3688,132.7152 183.3245,132.8584 183.2971,133.0418 L183.1580,133.0418 L183.2297,131.1578 L183.3907,131.1578 C183.4978,131.6974 183.7096,132.1342 184.0241,132.4661 C184.3385,132.7980 184.6915,132.9644 185.0843,132.9644 C185.3624,132.9644 185.5907,132.8902 185.7694,132.7428 C185.9481,132.5943 186.0375,132.4057 186.0375,132.1756 C186.0375,131.9296 185.9393,131.7271 185.7429,131.5692 C185.5476,131.4101 185.1682,131.2469 184.6055,131.0773 C184.0736,130.9171 183.6997,130.7412 183.4824,130.5471 C183.2662,130.3531 183.1580,130.1050 183.1580,129.8029 C183.1580,129.4699 183.2749,129.1858 183.5100,128.9515 C183.7449,128.7172 184.0340,128.6006 184.3771,128.6006 C184.5603,128.6006 184.7279,128.6302 184.8813,128.6907 C185.0346,128.7501 185.1803,128.8433 185.3182,128.9695 C185.3325,128.9844 185.3557,129.0066 185.3855,129.0352 C185.5002,129.1444 185.5895,129.1996 185.6547,129.1996 C185.7363,129.1996 185.8003,129.1615 185.8455,129.0851 C185.8907,129.0077 185.9305,128.8667 185.9647,128.6600 Z Z M190.8531,128.7342 C190.4141,128.7342 190.0985,128.8953 189.9078,129.2176 C189.7168,129.5388 189.6219,130.0838 189.6219,130.8525 C189.6219,131.6211 189.7168,132.1660 189.9078,132.4873 C190.0985,132.8096 190.4141,132.9708 190.8531,132.9708 C191.2922,132.9708 191.6088,132.8096 191.8019,132.4862 C191.9950,132.1628 192.0910,131.6189 192.0910,130.8525 C192.0910,130.0859 191.9950,129.5420 191.8019,129.2187 C191.6088,128.8953 191.2922,128.7342 190.8531,128.7342 Z Z M190.8553,128.6006 C191.0595,128.6006 191.2536,128.6334 191.4378,128.7002 C191.6221,128.7660 191.7941,128.8646 191.9542,128.9949 C192.2410,129.2293 192.4650,129.5113 192.6283,129.8432 C192.7905,130.1740 192.8720,130.5110 192.8720,130.8525 C192.8720,131.1981 192.7905,131.5353 192.6283,131.8639 C192.4650,132.1915 192.2410,132.4735 191.9542,132.7099 C191.7964,132.8383 191.6243,132.9358 191.4368,133.0036 C191.2491,133.0704 191.0550,133.1043 190.8553,133.1043 C190.6932,133.1043 190.5354,133.0821 190.3810,133.0375 C190.2277,132.9930 190.0798,132.9262 189.9397,132.8372 C189.6120,132.6346 189.3461,132.3495 189.1410,131.9815 C188.9368,131.6137 188.8342,131.2373 188.8342,130.8525 C188.8342,130.5567 188.8971,130.2630 189.0217,129.9714 C189.1465,129.6809 189.3241,129.4159 189.5546,129.1784 C189.7444,128.9834 189.9473,128.8392 190.1615,128.7437 C190.3754,128.6483 190.6071,128.6006 190.8553,128.6006 Z Z M198.6156,128.6069 L198.7745,128.6069 L198.7745,130.5089 L198.6356,130.5089 C198.5340,129.9545 198.3398,129.5209 198.0530,129.2091 C197.7661,128.8964 197.4207,128.7405 197.0148,128.7405 C196.6420,128.7405 196.3671,128.9038 196.1918,129.2314 C196.0164,129.5580 195.9282,130.0689 195.9282,130.7623 C195.9282,131.5384 196.0285,132.1003 196.2304,132.4460 C196.4312,132.7916 196.7567,132.9644 197.2046,132.9644 C197.6337,132.9644 197.9791,132.8213 198.2415,132.5361 C198.5053,132.2498 198.6476,131.8607 198.6687,131.3677 L198.8142,131.3677 C198.7844,131.9148 198.6244,132.3409 198.3366,132.6463 C198.0475,132.9517 197.6602,133.1043 197.1725,133.1043 C196.9486,133.1043 196.7423,133.0693 196.5525,132.9983 C196.3629,132.9283 196.1808,132.8191 196.0064,132.6728 C195.7351,132.4407 195.5244,132.1650 195.3731,131.8448 C195.2220,131.5246 195.1470,131.1938 195.1470,130.8525 C195.1470,130.5810 195.1978,130.3128 195.3004,130.0467 C195.4029,129.7805 195.5475,129.5357 195.7351,129.3119 C195.9358,129.0777 196.1487,128.9017 196.3738,128.7840 C196.5989,128.6663 196.8394,128.6069 197.0931,128.6069 C197.2420,128.6069 197.3976,128.6387 197.5586,128.7034 C197.7209,128.7671 197.8721,128.8561 198.0144,128.9695 C198.0364,128.9886 198.0673,129.0151 198.1081,129.0512 C198.2140,129.1455 198.2923,129.1933 198.3443,129.1933 C198.4005,129.1933 198.4512,129.1434 198.4976,129.0448 C198.5439,128.9452 198.5836,128.7989 198.6156,128.6069 Z Z M200.9061,128.7469 L203.2559,128.7469 L203.2559,128.8804 C202.8808,128.8911 202.6435,128.9377 202.5444,129.0215 C202.4451,129.1052 202.3953,129.2897 202.3953,129.5728 L202.3953,132.1321 C202.3953,132.4152 202.4439,132.5997 202.5410,132.6834 C202.6381,132.7672 202.8753,132.8138 203.2526,132.8244 L203.2559,132.9580 L200.9061,132.9580 L200.9061,132.8244 C201.2833,132.8138 201.5216,132.7672 201.6198,132.6834 C201.7180,132.5997 201.7665,132.4152 201.7665,132.1321 L201.7665,129.5728 C201.7665,129.2918 201.7180,129.1084 201.6198,129.0236 C201.5216,128.9388 201.2833,128.8911 200.9061,128.8804 L200.9061,128.7469 Z Z M207.7406,131.3677 L207.0743,129.4784 L206.4057,131.3677 L207.7406,131.3677 Z Z M207.3909,128.6579 L208.6684,132.1438 C208.7821,132.4587 208.8924,132.6506 208.9995,132.7206 C209.1064,132.7895 209.2774,132.8244 209.5147,132.8244 L209.6150,132.8244 L209.6150,132.9580 L207.3236,132.9580 L207.3236,132.8244 C207.6876,132.8202 207.9149,132.8012 208.0043,132.7672 C208.0936,132.7333 208.1378,132.6686 208.1378,132.5764 C208.1378,132.5424 208.1334,132.5053 208.1234,132.4640 C208.1136,132.4226 208.0970,132.3686 208.0739,132.3029 L207.7892,131.5077 L206.3571,131.5077 L206.2854,131.7123 C206.2490,131.8119 206.2215,131.9084 206.2016,132.0017 C206.1828,132.0950 206.1729,132.1745 206.1729,132.2402 C206.1729,132.4247 206.2425,132.5679 206.3815,132.6707 C206.5205,132.7735 206.7156,132.8244 206.9683,132.8244 L207.0136,132.8244 L207.0136,132.9580 L204.8490,132.9580 L204.8490,132.8244 C205.1425,132.8244 205.3974,132.7248 205.6147,132.5265 C205.8321,132.3272 206.0119,132.0303 206.1542,131.6349 L207.2198,128.6579 L207.3909,128.6579 Z Z M212.7107,132.1884 C212.7107,132.4757 212.7438,132.6538 212.8112,132.7216 C212.8775,132.7905 213.0473,132.8244 213.3186,132.8244 C213.9233,132.8244 214.3546,132.6739 214.6127,132.3728 C214.8720,132.0717 215.0011,131.5713 215.0011,130.8715 C215.0011,130.1442 214.8653,129.6301 214.5940,129.3279 C214.3214,129.0257 213.8593,128.8741 213.2061,128.8741 C213.0031,128.8741 212.8696,128.9028 212.8056,128.9610 C212.7427,129.0194 212.7107,129.1476 212.7107,129.3459 L212.7107,132.1884 Z Z M211.2214,128.7469 L213.3572,128.7469 C213.5990,128.7469 213.8141,128.7618 214.0015,128.7904 C214.1880,128.8190 214.3568,128.8646 214.5057,128.9271 C214.8764,129.0745 215.1831,129.3300 215.4248,129.6958 C215.6675,130.0616 215.7888,130.4507 215.7888,130.8651 C215.7888,131.2066 215.6973,131.5395 215.5141,131.8650 C215.3310,132.1894 215.0916,132.4449 214.7959,132.6284 C214.6127,132.7407 214.3976,132.8234 214.1516,132.8775 C213.9044,132.9315 213.6099,132.9580 213.2668,132.9580 L211.2214,132.9580 L211.2214,132.8244 C211.5964,132.8138 211.8326,132.7672 211.9297,132.6845 C212.0268,132.6018 212.0753,132.4173 212.0753,132.1321 L212.0753,129.5728 C212.0753,129.2897 212.0268,129.1052 211.9297,129.0215 C211.8326,128.9377 211.5964,128.8911 211.2214,128.8804 L211.2214,128.7469 Z Z M220.0772,128.7342 C219.6380,128.7342 219.3226,128.8953 219.1317,129.2176 C218.9407,129.5388 218.8459,130.0838 218.8459,130.8525 C218.8459,131.6211 218.9407,132.1660 219.1317,132.4873 C219.3226,132.8096 219.6380,132.9708 220.0772,132.9708 C220.5163,132.9708 220.8328,132.8096 221.0260,132.4862 C221.2189,132.1628 221.3150,131.6189 221.3150,130.8525 C221.3150,130.0859 221.2189,129.5420 221.0260,129.2187 C220.8328,128.8953 220.5163,128.7342 220.0772,128.7342 Z Z M220.0794,128.6006 C220.2835,128.6006 220.4776,128.6334 220.6619,128.7002 C220.8462,128.7660 221.0182,128.8646 221.1782,128.9949 C221.4650,129.2293 221.6889,129.5113 221.8523,129.8432 C222.0145,130.1740 222.0961,130.5110 222.0961,130.8525 C222.0961,131.1981 222.0145,131.5353 221.8523,131.8639 C221.6889,132.1915 221.4650,132.4735 221.1782,132.7099 C221.0205,132.8383 220.8482,132.9358 220.6608,133.0036 C220.4732,133.0704 220.2790,133.1043 220.0794,133.1043 C219.9171,133.1043 219.7595,133.0821 219.6050,133.0375 C219.4516,132.9930 219.3037,132.9262 219.1637,132.8372 C218.8359,132.6346 218.5701,132.3495 218.3649,131.9815 C218.1608,131.6137 218.0582,131.2373 218.0582,130.8525 C218.0582,130.5567 218.1211,130.2630 218.2457,129.9714 C218.3704,129.6809 218.5481,129.4159 218.7787,129.1784 C218.9684,128.9834 219.1714,128.8392 219.3854,128.7437 C219.5994,128.6483 219.8312,128.6006 220.0794,128.6006 Z Z M227.2969,128.6600 L227.4292,128.6600 L227.4292,130.3881 L227.2969,130.3881 C227.1325,129.8464 226.9151,129.4350 226.6448,129.1551 C226.3745,128.8741 226.0601,128.7342 225.7016,128.7342 C225.4566,128.7342 225.2547,128.8021 225.0969,128.9377 C224.9392,129.0734 224.8608,129.2451 224.8608,129.4541 C224.8608,129.6947 224.9580,129.8919 225.1521,130.0488 C225.3463,130.2047 225.7104,130.3605 226.2455,130.5153 C226.8467,130.6923 227.2505,130.8768 227.4567,131.0709 C227.6631,131.2638 227.7669,131.5267 227.7669,131.8586 C227.7669,132.2127 227.6421,132.5085 227.3917,132.7470 C227.1423,132.9856 226.8291,133.1043 226.4551,133.1043 C226.2366,133.1043 226.0413,133.0715 225.8659,133.0047 C225.6916,132.9390 225.5129,132.8276 225.3297,132.6728 C225.2283,132.5838 225.1543,132.5265 225.1068,132.5000 C225.0595,132.4746 225.0142,132.4618 224.9711,132.4618 C224.8917,132.4618 224.8222,132.5128 224.7615,132.6135 C224.7009,132.7152 224.6567,132.8584 224.6292,133.0418 L224.4901,133.0418 L224.5619,131.1578 L224.7229,131.1578 C224.8300,131.6974 225.0418,132.1342 225.3562,132.4661 C225.6707,132.7980 226.0237,132.9644 226.4165,132.9644 C226.6944,132.9644 226.9229,132.8902 227.1016,132.7428 C227.2802,132.5943 227.3696,132.4057 227.3696,132.1756 C227.3696,131.9296 227.2714,131.7271 227.0751,131.5692 C226.8798,131.4101 226.5003,131.2469 225.9376,131.0773 C225.4058,130.9171 225.0318,130.7412 224.8145,130.5471 C224.5982,130.3531 224.4901,130.1050 224.4901,129.8029 C224.4901,129.4699 224.6071,129.1858 224.8422,128.9515 C225.0771,128.7172 225.3662,128.6006 225.7093,128.6006 C225.8925,128.6006 226.0601,128.6302 226.2135,128.6907 C226.3667,128.7501 226.5124,128.8433 226.6504,128.9695 C226.6647,128.9844 226.6879,129.0066 226.7176,129.0352 C226.8324,129.1444 226.9217,129.1996 226.9868,129.1996 C227.0685,129.1996 227.1325,129.1615 227.1776,129.0851 C227.2229,129.0077 227.2627,128.8667 227.2969,128.6600 Z"
       style="stroke-width: 0.2160; stroke: #e1d2bd; stroke-dasharray: none; stroke-linecap: butt; stroke-linejoin: miter; fill: url(#grad4); "
       id="path10" />
    <g
       id="Layer1001">
      <path
         d="m 199.086,83.9293 -0.6645,-0.1741 c -1.0066,2.6313 -2.4059,4.7403 -4.1977,6.3269 -1.792,1.5865 -4.1979,2.3798 -7.218,2.3798 h -5.4503 v 2.2363 l 3e-4,0.0855 h 14.0269 z M 175.2881,58.6429 v -0.1952 -5.5142 h -1.3288 c -0.886,0 -1.9732,0.0097 -3.2617,0.029 -1.2885,0.0193 -2.6375,0.029 -4.0468,0.029 h -3.6241 v 0.8707 c 0.8859,0 1.6812,0.0484 2.3858,0.1451 0.7047,0.0967 1.3087,0.2999 1.8121,0.6095 0.5033,0.3095 0.8859,0.7642 1.1475,1.364 0.2618,0.5998 0.3927,1.4221 0.3927,2.4669 v 36.336 h 6.2674 V 64.1086 c 0,-1.0448 -0.1308,-1.8671 -0.3926,-2.4669 -0.2617,-0.5998 -0.6443,-1.0545 -1.1475,-1.364 -0.5034,-0.3096 -1.1075,-0.5128 -1.8122,-0.6095 -0.7046,-0.0968 -1.4999,-0.1451 -2.3857,-0.1451 v -0.8707 h 3.624 c 0.8099,0 1.5999,-0.0031 2.3699,-0.0095 z"
         style="fill:#1b1918;fill-rule:evenodd"
         id="path11"
         sodipodi:nodetypes="cccsccccccccsssccsscsccscscccsc" />
      <defs
         id="defs15">
        <linearGradient
           id="grad5">
          <stop
             offset="0.0000%"
             stop-color="#ffffff"
             stop-opacity="1.0000"
             id="stop11" />
          <stop
             offset="15.0000%"
             stop-color="#878783"
             stop-opacity="1.0000"
             id="stop12" />
          <stop
             offset="44.0000%"
             stop-color="#fbfbfb"
             stop-opacity="1.0000"
             id="stop13" />
          <stop
             offset="71.0000%"
             stop-color="#949491"
             stop-opacity="1.0000"
             id="stop14" />
          <stop
             offset="100.0000%"
             stop-color="#ffffff"
             stop-opacity="1.0000"
             id="stop15" />
        </linearGradient>
        <linearGradient
           xlink:href="#grad5"
           id="grad6"
           x1="0"
           y1="0"
           x2="0"
           y2="1"
           gradientTransform="rotate(357 .5 .5)"
           gradientUnits="objectBoundingBox" />
      </defs>
      <path
         d="  M193.8996,86.7598 L193.2351,86.5857 C192.2285,89.2170 190.8291,91.3260 189.0373,92.9126 C187.2454,94.4991 184.8394,95.2924 181.8194,95.2924 L176.3691,95.2924 L176.3691,97.5287 L176.3694,97.6142 L190.3963,97.6142 L193.8996,86.7598 Z Z M170.1016,61.4734 L170.1016,61.2782 L170.1016,55.7639 C170.1016,55.7639 169.6587,55.7639 168.7728,55.7639 C167.8869,55.7639 166.7997,55.7737 165.5111,55.7930 C164.2227,55.8123 162.8737,55.8220 161.4643,55.8220 C160.0550,55.8220 158.8469,55.8220 157.8403,55.8220 L157.8403,56.6927 C158.7261,56.6927 159.5214,56.7410 160.2260,56.8378 C160.9307,56.9345 161.5348,57.1377 162.0382,57.4472 C162.5414,57.7568 162.9240,58.2115 163.1857,58.8113 C163.4475,59.4111 163.5784,60.2334 163.5784,61.2782 L163.5784,97.6142 L169.8458,97.6142 L169.8458,66.9391 C169.8458,65.8943 169.7149,65.0719 169.4531,64.4722 C169.1915,63.8724 168.8089,63.4177 168.3056,63.1081 C167.8022,62.7986 167.1982,62.5954 166.4935,62.4987 C165.7889,62.4019 164.9936,62.3536 164.1077,62.3536 L164.1077,61.4829 C165.1143,61.4829 166.3224,61.4829 167.7318,61.4829 C168.5417,61.4829 169.3316,61.4798 170.1016,61.4734 Z"
         style="fill: url(#grad6); "
         id="path15" />
    </g>
  </g>
</svg>
